<svg width="452" height="450" viewBox="0 0 452 450" fill="none" xmlns="http://www.w3.org/2000/svg">
<path d="M426.302 223.5C441.047 223.5 453.162 235.494 451.428 250.137C447.309 284.926 435.157 318.415 415.784 347.893C391.505 384.837 356.946 413.869 316.367 431.409C275.788 448.949 230.962 454.231 187.418 446.603C143.873 438.975 103.512 418.771 71.3117 388.481C39.111 358.192 16.478 319.142 6.20291 276.145C-4.07213 233.147 -1.53998 188.083 13.4872 146.508C28.5143 104.932 55.3796 68.6634 90.7708 42.1721C119.01 21.0338 151.694 6.85834 186.166 0.619979C200.675 -2.00567 213.388 9.35405 214.289 24.0712V24.0712C215.19 38.7884 203.907 51.2438 189.503 54.3952C165.432 59.6615 142.658 70.0303 122.768 84.9186C95.7198 105.165 75.1878 132.884 63.7032 164.658C52.2185 196.432 50.2833 230.873 58.1361 263.734C65.9889 296.595 83.2864 326.439 107.896 349.588C132.506 372.737 163.352 388.178 196.631 394.008C229.91 399.838 264.168 395.801 295.181 382.396C326.195 368.991 352.607 346.804 371.162 318.569C384.807 297.806 393.764 274.44 397.55 250.093C399.815 235.523 411.558 223.5 426.302 223.5V223.5Z" fill="url(#paint0_linear_102_73)"/>
<defs>
<linearGradient id="paint0_linear_102_73" x1="206.5" y1="22.5" x2="321.5" y2="415" gradientUnits="userSpaceOnUse">
<stop stop-color="#3DB0F6"/>
<stop offset="0.519791" stop-color="#008EE4"/>
<stop offset="1" stop-color="#007BC5"/>
</linearGradient>
</defs>
</svg>
